<svg width="48" height="45" viewBox="0 0 48 45" fill="none" xmlns="http://www.w3.org/2000/svg">
<path d="M46.8283 18.0934H44.9237V18H23.6441V27H37.0065C35.0571 32.2391 29.8187 36 23.6441 36C15.8096 36 9.45763 29.9554 9.45763 22.5C9.45763 15.0446 15.8096 9 23.6441 9C27.2604 9 30.5505 10.2982 33.0556 12.4189L39.7433 6.05475C35.5205 2.30962 29.8719 0 23.6441 0C10.5866 0 0 10.0744 0 22.5C0 34.9256 10.5866 45 23.6441 45C36.7015 45 47.2881 34.9256 47.2881 22.5C47.2881 20.9914 47.125 19.5187 46.8283 18.0934Z" fill="#FFC107"/>
<path d="M2.72607 12.0274L10.4943 17.4487C12.5963 12.4965 17.6869 9 23.644 9C27.2603 9 30.5504 10.2982 33.0555 12.4189L39.7432 6.05475C35.5204 2.30962 29.8718 0 23.644 0C14.5623 0 6.68646 4.87912 2.72607 12.0274Z" fill="#FF3D00"/>
<path d="M23.6441 44.9999C29.7514 44.9999 35.3006 42.7758 39.4963 39.1589L32.1784 33.2662C29.7248 35.0419 26.7267 36.0022 23.6441 35.9999C17.4943 35.9999 12.2725 32.2683 10.3053 27.0607L2.59497 32.7138C6.50806 40.0004 14.4548 44.9999 23.6441 44.9999Z" fill="#4CAF50"/>
<path d="M46.8282 18.0933H44.9237V17.9999H23.644V26.9999H37.0065C36.074 29.4934 34.3942 31.6723 32.1748 33.2673L32.1784 33.2651L39.4962 39.1578C38.9784 39.6056 47.2881 33.7499 47.2881 22.4999C47.2881 20.9913 47.125 19.5187 46.8282 18.0933Z" fill="#1976D2"/>
</svg>
