<svg width="28" height="33" viewBox="0 0 28 33" fill="none" xmlns="http://www.w3.org/2000/svg">
<path d="M27.991 22.3341C27.991 26.1721 28.3504 30.2763 24.5535 30.2763C20.7565 30.2763 17.1875 35.2402 15.7143 31.7655C14.2411 27.7944 13.3905 22.3341 17.1874 22.3341C20.9843 22.3341 27.991 18.4961 27.991 22.3341Z" fill="#F28705"/>
<path d="M10.476 0.77391C11.041 0.274314 11.7584 0 12.5 0C13.2416 0 13.959 0.274314 14.524 0.77391L23.899 9.06189C24.2441 9.367 24.5213 9.74649 24.7114 10.1741C24.9015 10.6016 25 11.0671 25 11.5382V24.4997C25 25.1628 24.7467 25.7988 24.2959 26.2677C23.8451 26.7366 23.2337 27 22.5962 27H18.75C18.1125 27 17.501 26.7366 17.0502 26.2677C16.5994 25.7988 16.3462 25.1628 16.3462 24.4997V17.9989C16.3462 17.47 16.1447 16.9626 15.786 16.5877C15.4272 16.2129 14.9403 16.0011 14.4317 15.9987H10.5673C10.0589 16.0013 9.57227 16.2133 9.2137 16.5881C8.85513 16.9629 8.65384 17.4702 8.65385 17.9989V24.4997C8.65385 24.8281 8.59167 25.1532 8.47086 25.4565C8.35006 25.7599 8.17299 26.0355 7.94978 26.2677C7.72656 26.4999 7.46156 26.684 7.16991 26.8097C6.87826 26.9353 6.56568 27 6.25 27H2.40385C1.76631 27 1.15488 26.7366 0.70407 26.2677C0.253262 25.7988 0 25.1628 0 24.4997V11.5382C2.5299e-05 11.0671 0.0984985 10.6016 0.2886 10.1741C0.478701 9.74649 0.755888 9.367 1.10096 9.06189L10.476 0.77391Z" fill="#222222"/>
</svg>
