<svg width="28" height="33" viewBox="0 0 28 33" fill="none" xmlns="http://www.w3.org/2000/svg">
<path fill-rule="evenodd" clip-rule="evenodd" d="M10.8333 0.576C11.3142 0.202112 11.899 0 12.5 0C13.101 0 13.6858 0.202112 14.1667 0.576L23.8889 8.136C24.2339 8.40426 24.5139 8.75212 24.7067 9.15203C24.8996 9.55193 25 9.99289 25 10.44V24.12C25 24.8838 24.7073 25.6164 24.1864 26.1565C23.6655 26.6966 22.9589 27 22.2222 27H15.4167C15.0115 27 14.6229 26.8331 14.3364 26.5361C14.0499 26.239 13.8889 25.8361 13.8889 25.416V16.92C13.8889 16.5381 13.7426 16.1718 13.4821 15.9018C13.2216 15.6317 12.8684 15.48 12.5 15.48C12.1316 15.48 11.7784 15.6317 11.5179 15.9018C11.2574 16.1718 11.1111 16.5381 11.1111 16.92V25.416C11.1111 25.624 11.0716 25.83 10.9948 26.0222C10.918 26.2144 10.8055 26.389 10.6636 26.5361C10.5218 26.6831 10.3533 26.7998 10.168 26.8794C9.98263 26.959 9.78396 27 9.58333 27H2.77778C2.04107 27 1.33453 26.6966 0.813592 26.1565C0.292658 25.6164 0 24.8838 0 24.12V10.44C0 9.99289 0.100403 9.55193 0.293258 9.15203C0.486113 8.75212 0.766122 8.40426 1.11111 8.136L10.8333 0.576ZM12.5 2.88L2.77778 10.44V24.12H8.33333V16.92C8.33333 15.7743 8.77232 14.6755 9.55372 13.8653C10.3351 13.0551 11.3949 12.6 12.5 12.6C13.6051 12.6 14.6649 13.0551 15.4463 13.8653C16.2277 14.6755 16.6667 15.7743 16.6667 16.92V24.12H22.2222V10.44L12.5 2.88Z" fill="#222222"/>
</svg>
