<svg width="35" height="27" viewBox="0 0 35 27" fill="none" xmlns="http://www.w3.org/2000/svg">
<path d="M19.5 4.1201L18.7214 4.84248C18.8223 4.94332 18.9432 5.02353 19.077 5.07831C19.2108 5.1331 19.3546 5.16133 19.5 5.16133C19.6454 5.16133 19.7892 5.1331 19.923 5.07831C20.0568 5.02353 20.1777 4.94332 20.2786 4.84248L19.5 4.1201ZM12.2921 19.2902C12.0703 19.1144 11.7852 19.0308 11.4994 19.0576C11.2135 19.0844 10.9505 19.2196 10.7681 19.4333C10.5857 19.6469 10.4989 19.9217 10.5267 20.1971C10.5546 20.4725 10.6948 20.7259 10.9166 20.9016L12.2921 19.2902ZM5.57451 15.1101C5.64268 15.2301 5.73471 15.336 5.84537 15.4218C5.95603 15.5076 6.08313 15.5715 6.21943 15.6099C6.35573 15.6484 6.49855 15.6606 6.63974 15.6458C6.78094 15.6311 6.91773 15.5897 7.04233 15.524C7.16692 15.4584 7.27686 15.3697 7.36588 15.2631C7.4549 15.1565 7.52126 15.034 7.56116 14.9027C7.60106 14.7714 7.61372 14.6337 7.59842 14.4977C7.58312 14.3617 7.54017 14.2299 7.472 14.1098L5.57451 15.1101ZM6.16279 9.17262C6.16279 6.18584 7.91465 3.67972 10.3067 2.62532C12.631 1.60148 15.754 1.87237 18.7214 4.84248L20.2786 3.3991C16.7605 -0.125297 12.6713 -0.707372 9.40698 0.73045C6.2147 2.13771 4 5.40511 4 9.17262H6.16279ZM14.4492 23.5689C15.1888 24.1301 15.9819 24.7275 16.785 25.1804C17.5881 25.6319 18.5051 26 19.5 26V23.9162C19.053 23.9162 18.5282 23.7495 17.8765 23.3814C17.2233 23.0146 16.5471 22.5089 15.7887 21.9324L14.4492 23.5689ZM24.5508 23.5689C26.6069 22.0061 29.2369 20.2168 31.2987 17.9788C33.3995 15.7005 35 12.8762 35 9.17262H32.8372C32.8372 12.2261 31.5395 14.578 29.6824 16.5951C27.7864 18.6511 25.3972 20.2723 23.2113 21.9324L24.5508 23.5689ZM35 9.17262C35 5.40511 32.7867 2.13771 29.593 0.73045C26.3287 -0.707372 22.2424 -0.125297 18.7214 3.39771L20.2786 4.84248C23.246 1.87376 26.369 1.60148 28.6933 2.62532C31.0853 3.67972 32.8372 6.18445 32.8372 9.17262H35ZM23.2113 21.9324C22.4529 22.5089 21.7767 23.0146 21.1235 23.3814C20.4718 23.7481 19.947 23.9162 19.5 23.9162V26C20.4949 26 21.4119 25.6319 22.215 25.1804C23.0196 24.7275 23.8112 24.1301 24.5508 23.5689L23.2113 21.9324ZM15.7887 21.9324C14.6409 21.0614 13.4745 20.2279 12.2921 19.2902L10.9166 20.9016C12.1133 21.8505 13.3793 22.7562 14.4492 23.5689L15.7887 21.9324ZM7.472 14.1112C6.60343 12.6004 6.1526 10.8997 6.16279 9.17262H4C4 11.4481 4.60558 13.4027 5.57451 15.1101L7.472 14.1112Z" fill="#222222"/>
</svg>
