<svg width="35" height="27" viewBox="0 0 35 27" fill="none" xmlns="http://www.w3.org/2000/svg">
<path d="M14.2689 19.4456C14.6518 22.8025 13.7392 25.6585 10.323 26.0348C6.90678 26.4111 1.13405 23.2656 0.751123 19.9087C0.3682 16.5518 8.43957 12.3944 11.8558 12.0181C15.272 11.6419 13.886 16.0887 14.2689 19.4456Z" fill="#F28705"/>
<path d="M4 8.83827C4 16.1829 10.231 20.0962 14.7911 23.6001C16.4 24.8355 17.95 26 19.5 26C21.05 26 22.6 24.8371 24.2089 23.5986C28.7705 20.0977 35 16.1829 35 8.83978C35 1.49511 26.475 -3.71398 19.5 3.34827C12.525 -3.71549 4 1.4936 4 8.83827Z" fill="#222222"/>
</svg>
