<svg width="83" height="79" viewBox="0 0 83 79" fill="none" xmlns="http://www.w3.org/2000/svg">
<g filter="url(#filter0_d_138_964)">
<path d="M77 42.5C77 62.3823 83.3823 76.5 63.5 76.5C43.6177 76.5 5 62.3823 5 42.5C5 22.6177 41.1177 8 61 8C80.8823 8 77 22.6177 77 42.5Z" fill="#F23030"/>
</g>
<path d="M51.8702 48.1258H50.4248L49.9125 47.6318C51.7675 45.4802 52.787 42.7333 52.785 39.8925C52.785 37.5404 52.0875 35.2411 50.7808 33.2854C49.474 31.3297 47.6166 29.8054 45.4436 28.9053C43.2705 28.0052 40.8793 27.7696 38.5724 28.2285C36.2655 28.6874 34.1464 29.82 32.4832 31.4832C30.82 33.1464 29.6874 35.2655 29.2285 37.5724C28.7696 39.8793 29.0052 42.2705 29.9053 44.4436C30.8054 46.6166 32.3297 48.474 34.2854 49.7808C36.2411 51.0875 38.5404 51.785 40.8925 51.785C43.8382 51.785 46.546 50.7055 48.6318 48.9125L49.1258 49.4248V50.8702L58.2739 60L61 57.2739L51.8702 48.1258ZM40.8925 48.1258C36.3368 48.1258 32.6592 44.4483 32.6592 39.8925C32.6592 35.3368 36.3368 31.6592 40.8925 31.6592C45.4483 31.6592 49.1258 35.3368 49.1258 39.8925C49.1258 44.4483 45.4483 48.1258 40.8925 48.1258Z" fill="white"/>
<defs>
<filter id="filter0_d_138_964" x="0" y="0" width="82.9757" height="78.5" filterUnits="userSpaceOnUse" color-interpolation-filters="sRGB">
<feFlood flood-opacity="0" result="BackgroundImageFix"/>
<feColorMatrix in="SourceAlpha" type="matrix" values="0 0 0 0 0 0 0 0 0 0 0 0 0 0 0 0 0 0 127 0" result="hardAlpha"/>
<feOffset dy="-3"/>
<feGaussianBlur stdDeviation="2.5"/>
<feComposite in2="hardAlpha" operator="out"/>
<feColorMatrix type="matrix" values="0 0 0 0 0 0 0 0 0 0 0 0 0 0 0 0 0 0 0.25 0"/>
<feBlend mode="normal" in2="BackgroundImageFix" result="effect1_dropShadow_138_964"/>
<feBlend mode="normal" in="SourceGraphic" in2="effect1_dropShadow_138_964" result="shape"/>
</filter>
</defs>
</svg>
