<svg width="56" height="32" viewBox="0 0 56 32" fill="none" xmlns="http://www.w3.org/2000/svg">
<path d="M55.619 0.131743L55.593 1.0772C53.1513 1.13919 51.6829 2.30163 50.7444 4.20029C48.5722 8.67956 41.7686 22.7993 37.2502 31.9904H36.0685L28.9521 17.0259C26.1282 21.9546 23.0175 27.1004 20.3325 31.9904C20.3065 32.0136 19.0292 31.9904 19.0292 31.9671C14.954 23.4658 10.6789 15.0265 6.59504 6.50192C5.60448 4.43277 2.30262 1.0772 0.0260673 1.10044C0.0260673 0.860206 0 0.325483 0 0H14.0677V1.0772C12.3994 1.16244 9.47983 2.10789 10.3053 3.72756C12.2082 7.57911 19.3072 22.3499 21.2188 26.0929C22.5222 23.7913 26.2411 17.6304 27.7617 15.0265C26.5539 12.8333 22.6699 4.64976 21.4361 2.62712C20.5932 1.24769 18.2993 1.12369 16.5875 1.10044V0.0232488L28.9695 0.0464975V1.0617C27.2838 1.10819 25.659 1.66617 26.4149 3.08434C28.0572 6.18419 29.0738 8.36182 30.5944 11.1982C31.081 10.3612 33.6095 5.81995 34.7738 3.38658C35.5472 1.79016 34.435 1.17019 31.4198 1.10819C31.4459 0.829208 31.4198 0.309984 31.4459 0.0542473C35.3039 0.0309985 41.0995 0.0309983 42.1422 0.00774949V1.0617C40.1872 1.12369 38.1626 2.05365 37.0938 3.51832L31.9499 13.0348C32.506 14.2825 37.4501 24.1013 37.9627 25.1785L48.5982 3.27808C47.851 1.48792 45.4354 1.10044 44.497 1.08494V0.00774949L55.6017 0.0929953L55.619 0.131743Z" fill="#699BF7"/>
</svg>
